<svg xmlns="http://www.w3.org/2000/svg" width="29.645" height="25.21" viewBox="0 0 29.645 25.21">
  <g id="user_2_" data-name="user (2)" transform="translate(-3.008 -7.345)">
    <path id="Path_147" data-name="Path 147" d="M23.795,23.788a4.069,4.069,0,1,0-4.062-4.076,4.073,4.073,0,0,0,4.062,4.076Zm0-7.116a3.047,3.047,0,1,1-3.039,3.039,3.043,3.043,0,0,1,3.039-3.039Z" transform="translate(-8.174 -4.059)" fill="#fcfcfc"/>
    <path id="Path_148" data-name="Path 148" d="M28.222,19.545A12.636,12.636,0,1,0,21.663,31a6.7,6.7,0,1,0,6.558-11.455ZM15.62,8.367A11.6,11.6,0,0,1,27.187,19.261a6.673,6.673,0,0,0-7.038,3.229,11.891,11.891,0,0,0-14.12,3.959A11.578,11.578,0,0,1,15.62,8.367ZM6.676,27.31a10.864,10.864,0,0,1,13.027-3.9,6.648,6.648,0,0,0,1.2,6.84A11.568,11.568,0,0,1,6.676,27.31Zm19.277,4.222A5.684,5.684,0,1,1,31.63,25.84,5.7,5.7,0,0,1,25.953,31.532Z" fill="#fcfcfc"/>
    <path id="Path_149" data-name="Path 149" d="M47.146,39.271,44.03,42.388l-1.711-1.711a.511.511,0,0,0-.723.723l2.073,2.073a.511.511,0,0,0,.723,0l3.478-3.479a.511.511,0,0,0-.723-.723Z" transform="translate(-18.787 -15.531)" fill="#fcfcfc"/>
  </g>
</svg>
