<svg id="fi-rr-home_1" data-name="fi-rr-home 1" xmlns="http://www.w3.org/2000/svg" width="25" height="25" viewBox="0 0 25 25">
  <path id="Vector" d="M24.084,9.43l-7.9-7.907a5.214,5.214,0,0,0-7.367,0L.916,9.43A3.1,3.1,0,0,0,0,11.641V21.873A3.126,3.126,0,0,0,3.125,25h18.75A3.126,3.126,0,0,0,25,21.873V11.641a3.1,3.1,0,0,0-.916-2.211ZM15.625,22.915H9.375v-4.1a3.125,3.125,0,1,1,6.25,0Zm7.292-1.042a1.042,1.042,0,0,1-1.042,1.042H17.708v-4.1a5.208,5.208,0,1,0-10.417,0v4.1H3.125a1.042,1.042,0,0,1-1.042-1.042V11.641a1.051,1.051,0,0,1,.305-.737L10.29,3A3.132,3.132,0,0,1,14.71,3l7.9,7.907a1.051,1.051,0,0,1,.305.734Z" transform="translate(0 0)" fill="#023122"/>
</svg>
