<svg xmlns="http://www.w3.org/2000/svg" width="25" height="25" viewBox="0 0 25 25">
  <path id="briefcase" d="M19.792,4.167H18.646A5.218,5.218,0,0,0,13.542,0H11.458a5.218,5.218,0,0,0-5.1,4.167H5.208A5.215,5.215,0,0,0,0,9.375V19.792A5.215,5.215,0,0,0,5.208,25H19.792A5.215,5.215,0,0,0,25,19.792V9.375a5.215,5.215,0,0,0-5.208-5.208ZM11.458,2.083h2.083a3.125,3.125,0,0,1,2.933,2.083H8.525A3.125,3.125,0,0,1,11.458,2.083ZM5.208,6.25H19.792a3.125,3.125,0,0,1,3.125,3.125V12.5H2.083V9.375A3.125,3.125,0,0,1,5.208,6.25ZM19.792,22.917H5.208a3.125,3.125,0,0,1-3.125-3.125V14.583h9.375v1.042a1.042,1.042,0,1,0,2.083,0V14.583h9.375v5.208A3.125,3.125,0,0,1,19.792,22.917Z" fill="#707070"/>
</svg>
