<svg xmlns="http://www.w3.org/2000/svg" width="61.089" height="61.089" viewBox="0 0 61.089 61.089">
  <g id="growth" transform="translate(-2 -2)" opacity="0.6">
    <path id="Path_112" data-name="Path 112" d="M52.109,62.254a1.018,1.018,0,0,0,1.018-1.018V49.018A1.018,1.018,0,0,0,52.109,48H47.018A1.018,1.018,0,0,0,46,49.018V61.236a1.018,1.018,0,0,0,1.018,1.018ZM48.036,50.036h3.054V60.218H48.036Z" transform="translate(0.799 0.835)" fill="#fcfcfc"/>
    <path id="Path_113" data-name="Path 113" d="M44.127,61.163V53.018A1.018,1.018,0,0,0,43.109,52H38.018A1.018,1.018,0,0,0,37,53.018v8.145a1.018,1.018,0,0,0,1.018,1.018h5.091A1.018,1.018,0,0,0,44.127,61.163Zm-2.036-1.018H39.036V54.036h3.054Z" transform="translate(0.635 0.907)" fill="#fcfcfc"/>
    <path id="Path_114" data-name="Path 114" d="M61.109,43H56.018A1.018,1.018,0,0,0,55,44.018V61.327a1.018,1.018,0,0,0,1.018,1.018h5.091a1.018,1.018,0,0,0,1.018-1.018V44.018A1.018,1.018,0,0,0,61.109,43ZM60.091,60.309H57.036V45.036h3.054Z" transform="translate(0.962 0.744)" fill="#fcfcfc"/>
    <path id="Path_115" data-name="Path 115" d="M25.054,22.163a1.019,1.019,0,0,1-1.018-1.018H22a3.05,3.05,0,0,0,2.036,2.867v1.205h2.036V24.012a3.047,3.047,0,0,0-1.018-5.922,1.018,1.018,0,1,1,1.018-1.018h2.036a3.05,3.05,0,0,0-2.036-2.867V13H24.036v1.205a3.047,3.047,0,0,0,1.018,5.922,1.018,1.018,0,0,1,0,2.036Z" transform="translate(0.363 0.2)" fill="#fcfcfc"/>
    <path id="Path_116" data-name="Path 116" d="M24,2h2.036V7.091H24Z" transform="translate(0.399)" fill="#fcfcfc"/>
    <path id="Path_117" data-name="Path 117" d="M43,22h5.091v2.036H43Z" transform="translate(0.744 0.363)" fill="#fcfcfc"/>
    <path id="Path_118" data-name="Path 118" d="M2,22H7.091v2.036H2Z" transform="translate(0 0.363)" fill="#fcfcfc"/>
    <path id="Path_119" data-name="Path 119" d="M0,0H2.036V5.091H0Z" transform="translate(7.869 8.83) rotate(-45)" fill="#fcfcfc"/>
    <path id="Path_120" data-name="Path 120" d="M30.381,54.817h.131a2.927,2.927,0,0,0,2.923-2.923v-.263a2.883,2.883,0,0,0-.368-1.389,3.032,3.032,0,0,0,.368-4.813V41.051a2.972,2.972,0,0,1,1.228-2.444A16.315,16.315,0,0,0,41.581,25.29,16.291,16.291,0,0,0,24.52,9.018a16.286,16.286,0,0,0-8.582,29.6,2.947,2.947,0,0,1,1.208,2.431v4.376a3.032,3.032,0,0,0,.368,4.813,2.883,2.883,0,0,0-.368,1.389v.263a2.927,2.927,0,0,0,2.923,2.923H20.2a5.091,5.091,0,1,0,10.181,0ZM17.108,36.955a14.254,14.254,0,1,1,16.383-.012A5.011,5.011,0,0,0,31.4,41.051v3.584H26.309v-5.8l1.563-2.345h1.492A5.1,5.1,0,0,0,34.454,31.4V29.363a1.018,1.018,0,0,0-1.018-1.018H31.4a5.1,5.1,0,0,0-5.091,5.091v1.728L25.29,36.691l-1.018-1.527V33.436a5.1,5.1,0,0,0-5.091-5.091H17.145a1.018,1.018,0,0,0-1.018,1.018V31.4a5.1,5.1,0,0,0,5.091,5.091h1.492l1.563,2.345v5.8H19.181V41.053a4.985,4.985,0,0,0-2.074-4.1Zm11.237-2.5V33.436A3.058,3.058,0,0,1,31.4,30.381h1.018V31.4a3.058,3.058,0,0,1-3.054,3.054Zm-6.109-1.018v1.018H21.218A3.058,3.058,0,0,1,18.163,31.4V30.381h1.018A3.058,3.058,0,0,1,22.236,33.436ZM18.163,47.69a1.019,1.019,0,0,1,1.018-1.018H31.4a1.018,1.018,0,0,1,0,2.036H19.181a1.019,1.019,0,0,1-1.018-1.018Zm1.9,5.091a.888.888,0,0,1-.887-.887v-.263a.888.888,0,0,1,.887-.887H30.513a.888.888,0,0,1,.886.887v.263a.888.888,0,0,1-.887.887Zm2.168,2.036h6.109a3.054,3.054,0,0,1-6.109,0Z" transform="translate(0.127 0.127)" fill="#fcfcfc"/>
    <path id="Path_121" data-name="Path 121" d="M0,0H5.091V2.036H0Z" transform="translate(37.651 10.989) rotate(-45)" fill="#fcfcfc"/>
    <path id="Path_122" data-name="Path 122" d="M36.983,43.2,37,45.236a72.534,72.534,0,0,0,7.552-1.771,43.181,43.181,0,0,0,9.134-3.922l3.376-2.088,1.491,2.236a1.018,1.018,0,0,0,1.813-.242L62.4,33.34A1.018,1.018,0,0,0,61.436,32H55.327a1.017,1.017,0,0,0-.847,1.582l1.455,2.183-2.966,1.856-.217.112A41.09,41.09,0,0,1,44.03,41.5c-4.086,1.088-6.637,1.681-7.047,1.7Zm23.041-9.163-.932,2.794L57.23,34.036Z" transform="translate(0.635 0.544)" fill="#fcfcfc"/>
  </g>
</svg>
