<svg xmlns="http://www.w3.org/2000/svg" width="25" height="24.999" viewBox="0 0 25 24.999">
  <g id="_9-Home" data-name="9-Home" transform="translate(-1.996 -1.994)">
    <path id="Path_2257" data-name="Path 2257" d="M19.69,26.991H9.3a4.463,4.463,0,0,1-4.623-4.248V17.173a.893.893,0,1,1,1.785,0v5.569A2.678,2.678,0,0,0,9.3,25.205H19.69a2.678,2.678,0,0,0,2.838-2.463V17.173a.893.893,0,1,1,1.785,0v5.569a4.463,4.463,0,0,1-4.623,4.249Zm7.042-11.862a.893.893,0,0,0,0-1.267l-11.6-11.6a.893.893,0,0,0-1.267,0l-11.6,11.6a.9.9,0,0,0,1.267,1.267L14.5,4.15,25.464,15.129a.893.893,0,0,0,1.267,0Z" fill="#707070"/>
  </g>
</svg>
