<svg id="Component_192_23" data-name="Component 192 – 23" xmlns="http://www.w3.org/2000/svg" width="31.945" height="37.604" viewBox="0 0 31.945 37.604">
  <g id="Group_429" data-name="Group 429" transform="translate(-1826.233 -29)">
    <g id="Icon_ionic-ios-notifications-outline" data-name="Icon ionic-ios-notifications-outline" transform="translate(1826.233 29.396)">
      <path id="Path_8" data-name="Path 8" d="M7.5,0A1.2,1.2,0,0,0,6.316.949a2.331,2.331,0,0,1-.465,1.014,1.758,1.758,0,0,1-1.5.549,1.787,1.787,0,0,1-1.5-.549A2.331,2.331,0,0,1,2.392.949,1.2,1.2,0,0,0,1.21,0h0A1.213,1.213,0,0,0,.029,1.479a4.155,4.155,0,0,0,4.324,3.45,4.147,4.147,0,0,0,4.324-3.45A1.217,1.217,0,0,0,7.5,0Z" transform="translate(10.483 32.279)" fill="#023122"/>
      <path id="Path_9" data-name="Path 9" d="M29.354,27.555c-1.432-1.888-4.25-2.994-4.25-11.448,0-8.677-3.831-12.164-7.4-13-.335-.084-.577-.2-.577-.549v-.27A2.281,2.281,0,0,0,14.893,0h-.056a2.281,2.281,0,0,0-2.232,2.288v.27c0,.344-.242.465-.577.549-3.58.846-7.4,4.324-7.4,13,0,8.453-2.818,9.551-4.25,11.448a1.846,1.846,0,0,0,1.479,2.957H27.9A1.847,1.847,0,0,0,29.354,27.555Zm-3.627.539H4.04a.408.408,0,0,1-.307-.679,11.266,11.266,0,0,0,1.953-3.106,21.074,21.074,0,0,0,1.33-8.2c0-3.469.651-6.184,1.944-8.072a5.967,5.967,0,0,1,3.6-2.567,3.259,3.259,0,0,0,1.73-.976A.735.735,0,0,1,15.4,4.473a3.369,3.369,0,0,0,1.748,1,5.967,5.967,0,0,1,3.6,2.567c1.293,1.888,1.944,4.6,1.944,8.072a21.074,21.074,0,0,0,1.33,8.2,11.4,11.4,0,0,0,2,3.153A.384.384,0,0,1,25.727,28.094Z" transform="translate(0 0)" fill="#023122"/>
    </g>
    <path id="Path_103" data-name="Path 103" d="M8.041,0A8.041,8.041,0,1,1,0,8.041,8.041,8.041,0,0,1,8.041,0Z" transform="translate(1842.097 29)" fill="#ffa200"/>
    <text id="Dashboard" transform="translate(1847.097 41.104)" fill="#fff" font-size="11" font-family="Poppins-Regular, Poppins"><tspan x="0" y="0">3</tspan></text>
  </g>
</svg>
