<svg id="registered" xmlns="http://www.w3.org/2000/svg" width="25" height="25" viewBox="0 0 25 25">
  <path id="Path_145" data-name="Path 145" d="M12.5,0A12.5,12.5,0,1,0,25,12.5,12.5,12.5,0,0,0,12.5,0Zm0,23.75A11.25,11.25,0,1,1,23.75,12.5,11.25,11.25,0,0,1,12.5,23.75Zm0,0" fill="#fcfcfc"/>
  <path id="Path_146" data-name="Path 146" d="M190.536,157.647a4.053,4.053,0,0,0-4.049-4.049h-6.478a.81.81,0,0,0-.81.81v11.336a.81.81,0,0,0,1.62,0V161.7h5.235l3,4.5a.81.81,0,0,0,1.348-.9l-2.565-3.848a4.042,4.042,0,0,0,2.7-3.8Zm-4.048,2.429h-5.668v-4.859h5.668a2.429,2.429,0,0,1,0,4.859Zm0,0" transform="translate(-171.931 -147.576)" fill="#fcfcfc"/>
</svg>
