<svg xmlns="http://www.w3.org/2000/svg" width="26.733" height="32.157" viewBox="0 0 26.733 32.157">
  <g id="entrance" transform="translate(-5.987 -0.71)">
    <path id="Path_152" data-name="Path 152" d="M25.644,32.867h9.394A4.877,4.877,0,0,0,39.909,28V5.581A4.876,4.876,0,0,0,35.038.71H25.644a4.876,4.876,0,0,0-4.871,4.871V9.595a1.285,1.285,0,1,0,2.569,0V5.581a2.3,2.3,0,0,1,2.3-2.3h9.394a2.3,2.3,0,0,1,2.3,2.3V28a2.3,2.3,0,0,1-2.3,2.3H25.644a2.3,2.3,0,0,1-2.3-2.3V23.983a1.285,1.285,0,0,0-2.569,0V28a4.877,4.877,0,0,0,4.871,4.871Z" transform="translate(-7.188)" fill="#f3f3f3"/>
    <path id="Path_153" data-name="Path 153" d="M19.88,31.959,23.7,28.986a1.285,1.285,0,0,0,0-2.027L19.88,23.985A1.284,1.284,0,1,0,18.3,26.012l.867.675H7.272a1.285,1.285,0,1,0,0,2.569h11.9l-.866.675a1.285,1.285,0,0,0,1.579,2.028Z" transform="translate(0 -11.183)" fill="#f3f3f3"/>
  </g>
</svg>
