<svg xmlns="http://www.w3.org/2000/svg" width="25" height="25" viewBox="0 0 25 25">
  <path id="rocket-lunch" d="M18.726,8.842a2.6,2.6,0,1,1-2.6-2.6A2.6,2.6,0,0,1,18.726,8.842Zm-.006,7.142a11.511,11.511,0,0,1-1.21,4.753A7.941,7.941,0,0,1,10.4,24.966H9.364V19.245A3.659,3.659,0,0,0,5.723,15.6H0v-1.04A7.941,7.941,0,0,1,4.23,7.458a11.511,11.511,0,0,1,4.753-1.21A16.111,16.111,0,0,1,21.818,0h0a3.13,3.13,0,0,1,3.15,3.121A16.131,16.131,0,0,1,18.72,15.985ZM2.169,13.523H4.522A35.744,35.744,0,0,1,7.236,8.569a9.355,9.355,0,0,0-2.073.749,5.741,5.741,0,0,0-2.994,4.206ZM16.4,17.731a35.744,35.744,0,0,1-4.955,2.714V22.8A5.741,5.741,0,0,0,15.65,19.8,9.355,9.355,0,0,0,16.4,17.731Zm6.488-14.64a1.04,1.04,0,0,0-1.04-1.011c-5.368.153-9,2.21-12.5,7.1a31.125,31.125,0,0,0-2.57,4.443A5.721,5.721,0,0,1,11.352,18.2a31.124,31.124,0,0,0,4.443-2.57C20.678,12.119,22.734,8.489,22.887,3.092ZM6.37,18.6a3.136,3.136,0,0,1,0,4.413c-.944.942-3.768,1.524-4.939,1.731L-.032,25l.257-1.463c.208-1.171.789-4,1.731-4.939A3.2,3.2,0,0,1,6.37,18.6ZM5.2,20.805a1.04,1.04,0,0,0-1.776-.735,7.613,7.613,0,0,0-.825,2.3,7.638,7.638,0,0,0,2.3-.826A1.033,1.033,0,0,0,5.2,20.805Z" transform="translate(0.032 0)" fill="#707070"/>
</svg>
