<svg xmlns="http://www.w3.org/2000/svg" width="58.467" height="58.467" viewBox="0 0 58.467 58.467">
  <path id="user_1_" data-name="user (1)" d="M58.467,29.233A29.233,29.233,0,1,0,9.489,50.768l-.028.024.948.8c.062.052.129.095.19.146.5.418,1.026.814,1.557,1.2.172.124.344.249.52.37q.851.587,1.745,1.114c.13.077.26.151.391.225.652.371,1.317.721,2,1.042l.151.068a28.97,28.97,0,0,0,7.07,2.238l.2.035c.77.133,1.548.239,2.335.31.1.009.191.014.288.022.785.065,1.578.106,2.381.106s1.582-.041,2.362-.1c.1-.009.2-.014.3-.022q1.172-.107,2.315-.305l.2-.036a28.969,28.969,0,0,0,6.97-2.185c.081-.037.163-.072.243-.111q.984-.462,1.925-.995.234-.132.467-.269c.572-.337,1.134-.689,1.681-1.063.2-.134.389-.275.584-.416.467-.336.925-.682,1.37-1.045.1-.08.205-.149.3-.231l.973-.812-.029-.024A29.158,29.158,0,0,0,58.467,29.233Zm-56.341,0A27.107,27.107,0,1,1,47.21,49.5a7.967,7.967,0,0,0-.949-.571l-9-4.5a2.356,2.356,0,0,1-1.31-2.119V39.165c.208-.257.428-.549.656-.868a21.662,21.662,0,0,0,2.781-5.446,3.858,3.858,0,0,0,2.216-3.5V25.586a3.868,3.868,0,0,0-.943-2.518V18.107a8.574,8.574,0,0,0-2-6.234C36.7,9.636,33.529,8.5,29.233,8.5s-7.467,1.132-9.426,3.368a8.574,8.574,0,0,0-2,6.234v4.961a3.873,3.873,0,0,0-.943,2.518v3.768a3.867,3.867,0,0,0,1.424,3,19.974,19.974,0,0,0,3.288,6.792V42.22A2.371,2.371,0,0,1,20.34,44.3l-8.405,4.585a7.682,7.682,0,0,0-.8.506A27.042,27.042,0,0,1,2.126,29.233ZM45.135,51.166q-.558.405-1.134.781c-.176.115-.352.23-.532.341-.5.31-1.012.606-1.533.882-.115.061-.231.118-.347.178a27.088,27.088,0,0,1-3.708,1.569l-.135.046q-1,.332-2.024.587h-.006c-.689.17-1.386.311-2.088.427l-.057.011c-.66.107-1.326.185-1.993.243-.118.011-.236.018-.355.027-.66.05-1.323.082-1.99.082s-1.346-.033-2.014-.083c-.116-.009-.232-.016-.347-.027-.674-.06-1.345-.139-2.009-.248l-.089-.016a27.007,27.007,0,0,1-4.135-1.032l-.125-.043q-1-.341-1.979-.758l-.014-.006c-.614-.265-1.217-.558-1.812-.867-.078-.04-.156-.079-.233-.12-.543-.29-1.075-.6-1.6-.931q-.233-.147-.462-.3c-.483-.316-.959-.644-1.422-.992-.048-.036-.094-.074-.141-.111l.1-.057,8.405-4.585A4.5,4.5,0,0,0,23.7,42.22V38.391l-.244-.3a17.749,17.749,0,0,1-3.19-6.608l-.1-.421-.362-.235a1.762,1.762,0,0,1-.817-1.48V25.584a1.736,1.736,0,0,1,.592-1.3l.351-.317V18.046l-.01-.139a6.4,6.4,0,0,1,1.484-4.635c1.537-1.752,4.171-2.642,7.827-2.642s6.268.882,7.809,2.621a6.509,6.509,0,0,1,1.5,4.657l-.01,6.06.351.317a1.738,1.738,0,0,1,.592,1.3v3.768a1.775,1.775,0,0,1-1.255,1.674l-.528.163-.17.526a19.666,19.666,0,0,1-2.653,5.349c-.279.393-.55.742-.782,1.009l-.264.3v3.932a4.469,4.469,0,0,0,2.485,4.02l9,4.5c.057.029.114.058.17.088C45.367,51,45.25,51.083,45.135,51.166Z" fill="rgba(252,252,252,0.6)"/>
</svg>
