<svg xmlns="http://www.w3.org/2000/svg" width="25" height="25" viewBox="0 0 25 25">
  <path id="returning-visitor" d="M12.5,11.806A3.212,3.212,0,1,0,9.288,8.595,3.215,3.215,0,0,0,12.5,11.806Zm0-4.861a1.649,1.649,0,1,1-1.649,1.649A1.651,1.651,0,0,1,12.5,6.946ZM6.251,16.925v1.911a.781.781,0,0,0,.781.781H17.968a.781.781,0,0,0,.781-.781V16.925a4.267,4.267,0,0,0-3.612-4.233,17.008,17.008,0,0,0-5.274,0,4.267,4.267,0,0,0-3.612,4.233Zm1.563,0a2.712,2.712,0,0,1,2.3-2.69,15.45,15.45,0,0,1,4.783,0,2.712,2.712,0,0,1,2.3,2.69v1.129H7.813ZM25,12.5A12.5,12.5,0,0,1,3.651,21.329,12.425,12.425,0,0,1,0,12.5a.781.781,0,0,1,1.562,0,10.926,10.926,0,1,0,2.8-7.318l.172-.055a.781.781,0,1,1,.478,1.488L2.581,7.4a.781.781,0,0,1-1-.579l-.539-2.5a.781.781,0,0,1,1.527-.329l.156.725A12.477,12.477,0,0,1,12.5,0,12.5,12.5,0,0,1,25,12.5Z" fill="#f3f3f3"/>
</svg>
